Patient4_TMGait_0pt3_03_right_28_EMG.mot
version=1
nRows=26
nColumns=33
inDegrees=no
endheader
time	1LAddLong	2LGlutMax	3LGlutMed	4LIliopsoas	5LSemiMemb	6LBicFemLong	7LRecFem	8LVastMed	9LVastLat	10LGasMed	11LTibAnt	12lTibPost	13LPeroneusLong	14LSol	15LExtDigLong	16LFlexDigLong	17RAddLong	18RGlutMax	19RGlutMed	20RIliopsoas	21RSemiMemb	22RBicFemLong	23RRecFem	24RVastMed	25RVastLat	26RGasMed	27RTibAnt	28RTibPost	29RPeroneusLong	30RSol	31RExtDigLong	32RFlexDigLong
53.59	-0.016937	0.078125	0.078125	-0.020142	-0.090027	0.01236	-0.009003	-0.003815	0.00412	-0.002747	-0.002289	-0.003662	0.057526	0.033417	-0.33936	-0.048523	0.018768	0.03418	0.13458	0.016479	0.12741	0.032043	0.40878	-0.25864	-0.18173	-0.020905	-0.52521	-0.006409	0.10407	0.21027	-0.009613	-0.005646
53.591	-0.007629	0.089111	0.042725	-0.015717	0.052948	-0.083618	-0.045471	-0.005035	0.10422	0.016632	-0.12802	-0.001068	-0.012665	-0.050049	-0.15366	-0.037994	0.002594	0.050354	-0.21896	0.016632	0.073395	0.077209	-0.087891	-0.16769	-0.1973	0.000153	0.13031	-0.003662	-0.12543	0.036011	-0.001678	-0.009613
53.592	0.004272	0.092316	0.06546	-0.018311	0.032806	-0.03479	-0.065155	-0.009155	0.14053	0.012512	-0.21744	0.000153	0.006866	-0.062561	-0.065308	-0.032959	-0.018921	0.11414	-0.34378	0.015106	-0.024261	0.10941	-0.87891	-0.17319	-0.077209	0	-0.13489	-0.001526	-0.004883	-0.12894	-0.004272	-0.001526
53.593	0.020599	0.052338	0.039368	0.001678	0.004425	-0.080261	-0.095062	-0.000916	0.14954	-0.057526	0.02121	0.000763	0.12268	0.012817	-0.32623	-0.042572	-0.033569	0.053864	-0.21042	0.023651	0.018768	0.1181	-1.1928	0.20996	0.20874	0.000763	-0.014648	-0.003357	0.14877	-0.1619	-0.001068	-0.003204
53.594	0.029907	0.056	0.020752	0.015106	0.074921	-0.026855	-0.051575	-0.012512	0.11902	-0.031738	0.050812	0.001831	0.0177	-0.081787	-0.34927	-0.028076	-0.014343	0.044708	0.058136	-0.027313	0.19333	0.073395	-0.74081	0.34302	0.19867	-0.000153	-0.58289	-0.008392	0.14633	-0.045624	-0.000305	-0.006866
53.595	0.012665	0.051575	0.019379	0.002136	0.12451	0.033417	0.04425	-0.012512	0.020752	0.007935	-0.069885	0.006256	-0.061951	-0.076752	-0.34653	-0.016479	0.028992	0.1001	0.12085	-0.056458	0.13016	0.005035	-0.35263	0.30365	0.007019	-0.002441	-0.51422	-0.003357	0.095978	0.10468	-0.005646	-0.006256
53.596	0.00412	0.070343	0.010529	-0.002899	0.061035	0.006256	0.066528	0.001373	-0.12314	-0.019531	-0.16068	0.024872	0.027008	-0.005798	0.2095	-0.004883	0.024261	0.063629	1.0422	-0.04364	0.039978	-0.020142	-0.33798	0.14908	-0.033417	0.000458	-0.28366	-0.005951	0.053253	0.097504	-0.002594	-0.00351
53.597	-0.015564	0.096283	0.001831	0.005341	-0.007019	0.073395	0.058899	0.005188	-0.18066	0.022125	-0.092621	0.022736	0.051575	-0.048218	0.042419	-0.005035	0.018005	0.029602	0.80414	-0.005188	0.036774	-0.028687	-0.26062	0.14236	-0.001373	0.000916	-0.48447	-0.001984	-0.015411	0.059967	-0.003052	-0.006409
53.598	-0.014343	0.094452	0.013733	-0.019226	0.000763	0.088348	0.049286	0.016327	-0.15503	0.037231	-0.064392	0.019684	0.072632	-0.018158	-0.027771	-0.017242	0.020599	-0.036621	0.14771	0.037079	0.056152	-0.044708	-0.085144	0.12756	-0.012207	-0.001221	-0.40497	-0.002747	0.018921	0.13382	-0.003815	-0.00824
53.599	-0.006256	0.089264	0.008392	-0.015259	0.000916	0.065613	0.030823	0.005951	-0.012054	0.034485	0.037689	0.020905	0.070648	0.025177	-0.028992	-0.016937	0.015259	-0.033112	-0.24323	-0.000305	0.046844	-0.055084	-0.062714	0.079956	-0.007019	-0.009308	-0.33539	-0.006104	0.040894	0.29572	-0.001221	-0.00412
53.6	-0.004425	0.10284	-0.018005	-0.001068	-0.047302	0.018463	-0.026855	0.008545	0.048981	0.037842	0.10574	0.029144	0.00351	0.010376	-0.10773	-0.027313	0.014954	-0.00061	-0.25009	-0.11948	0.020294	-0.044098	-0.11139	0.026093	-0.000458	-0.012054	-0.22736	-0.001526	0.046234	0.14389	0.000458	-0.003204
53.601	0.011902	0.11169	-0.02655	-0.012665	-0.021667	-0.10834	-0.01709	0.00473	0.081024	0.003662	0.023651	0.031433	0.012665	0.004425	-0.002594	-0.056763	0.00351	0.092621	-0.012817	-0.19272	0.006104	-0.041809	-0.18158	0.044556	-0.027466	-0.001678	0.09491	-0.006561	0.01236	-0.069275	-0.003662	-0.004578
53.602	0.02655	0.094604	-0.057831	-0.012665	0.040588	-0.19669	-0.022736	-0.011292	0.17364	-0.00824	-0.079651	0.032501	0.051575	-0.082397	0.16998	-0.11047	0.00351	0.014038	-0.077209	-0.17532	-0.016937	0.050659	-0.16251	0.020447	-0.052185	-0.002289	0.13962	-0.002747	-0.063782	-0.027466	-0.001221	-0.013733
53.603	0.033875	0.07309	-0.036469	0.000305	0.03067	-0.24735	-0.068054	-0.016785	0.19882	-0.015411	-0.081635	0.037079	0.077362	-0.17364	0.27893	-0.092468	0.004425	-0.005951	0.22308	-0.20706	0.01358	0.034332	-0.11475	0.032349	0.05127	-0.010986	0.26764	-0.003815	-0.076294	-0.019684	-0.001068	-0.007782
53.604	0.021057	0.091858	0.050507	0.001373	0.091095	-0.20401	-0.019989	-0.021667	0.1416	-0.017548	-0.060425	0.036621	0.022888	-0.069427	0.21957	-0.030212	0.025482	0.021057	0.16251	-0.011292	0.075378	-0.029144	-0.10483	0.009308	0.044861	-0.006714	0.31876	-0.002899	-0.049286	-0.028687	-0.002441	-0.003204
53.605	0.028076	0.078583	0.016479	0.011902	0.084686	-0.071259	-0.010376	-0.00473	0.006409	0.012054	-0.072174	0.04425	0.012817	-0.018463	0.22339	-0.020294	0.051117	-0.011292	0.043335	0.1918	0.091553	-0.10483	-0.085449	-0.018921	0.005646	0.000305	-0.13001	-0.002747	-0.30853	-0.094299	-0.001984	-0.00412
53.606	0.01236	0.10361	-0.008698	0.00946	0.027313	0.010529	0.043488	0.009155	-0.1152	0.00351	0.033875	0.04425	-0.015869	-0.001526	0.13672	-0.078583	0.068207	0.015106	-0.17014	0.30823	0.010986	-0.10468	-0.053406	-0.071869	-0.018311	0.000916	-0.16251	-0.002136	-0.22583	-0.11765	0.000153	-0.00885
53.607	0.005798	0.11932	-0.028992	-0.005341	0.007935	0.010071	0.038452	0.008698	-0.12497	-0.029297	0.053864	0.03891	-0.025635	0.038452	0.071411	-0.06424	0.029755	-0.003204	-0.08667	0.30899	-0.32761	0.10925	-0.031281	-0.046692	-0.016174	0.001068	0.11978	-0.006256	0.027924	-0.10712	-0.004272	-0.004578
53.608	-0.001984	0.10696	-0.019073	-0.016327	-0.016327	0.028076	0.05661	0.006561	-0.10666	-0.036011	0.001068	0.032959	0.028839	0.058746	0.011749	-0.041046	-0.013275	-0.0737	-0.058289	0.26718	-0.35294	0.20584	-0.092163	-0.000153	-0.025635	-0.001984	0.22995	-0.001678	0.032654	-0.075989	-0.006714	-0.00885
53.609	0.001678	0.13184	-0.010681	0.002289	-0.039673	-0.007629	0.02533	0.001678	-0.057831	-0.018311	-0.005035	0.039215	0.05722	0.015259	0.022583	-0.023499	-0.032196	-0.06073	0.26337	0.1384	0.040588	0.13641	-0.069427	0.049744	-0.030823	0.001221	0.17609	-0.00946	-0.10086	-0.042572	-0.003662	-0.00885
53.61	0.005798	0.14313	-0.042267	0.006714	-0.080109	0.009918	0.002747	0.000305	-0.049744	-0.00885	-0.014648	0.030975	0.060883	-0.021973	0.065002	-0.048523	-0.030975	-0.064697	0.30075	0.053101	0.2243	0.014191	-0.067596	0.04837	-0.021057	0.001526	0.097046	-0.009308	-0.10986	0.005188	-0.002747	-0.006866
53.611	0.006104	0.11322	-0.049438	-0.000458	-0.10284	-0.020599	0.027618	0.012512	-0.012665	0.010986	0.025635	0.024567	0.015411	-0.019989	0.09964	-0.041046	-0.048218	-0.083771	-0.16052	0.01297	0.17395	0.013885	-0.052185	0.04776	-0.040588	-0.001221	0.099335	-0.010681	-0.1265	-0.02243	-0.00412	-0.011139
53.612	-0.007172	0.12863	-0.043945	-0.003662	-0.056763	-0.041351	0.031586	0.00473	0.00412	0.019073	0.04364	0.017395	-0.005188	-0.011902	0.10025	-0.03067	-0.019226	-0.081787	-0.33096	-0.10681	0.009918	0.055237	-0.072784	0.008392	-0.028076	-0.00824	0.093689	-0.01297	-0.094757	-0.050812	-0.000305	-0.020752
53.613	0.005493	0.1181	-0.02243	-0.001678	0.014343	-0.020447	0.015106	0.010681	0.014343	0.034332	0.031281	0.00885	-0.006866	0.048523	0.077057	-0.044098	-0.031433	-0.052795	-0.12711	-0.053864	0.071564	0.019379	-0.052185	0.019836	-0.024414	-0.0177	0.10193	-0.005035	-0.089874	-0.045166	-0.006714	-0.0177
53.614	0.020905	0.13931	-0.019836	-0.00351	0.02121	-0.011292	0.010834	0.009613	0.020752	-0.00824	0.023804	-0.002747	-0.023193	0.10712	0.011749	-0.040588	-0.020142	-0.071564	0.36453	0.035095	0.06485	0.015411	-0.072327	0.041046	-0.040588	-0.012054	0.11749	-0.011139	-0.16998	0.069885	-0.003815	-0.009766
53.615	0.020905	0.093689	-0.065002	0.006561	0.007019	0.042572	0.002136	0.010681	0.039368	0.045166	0.03479	-0.006409	-0.047913	0.12558	-0.013733	-0.029907	-0.019684	-0.047913	0.14694	0.037689	0.05249	0.055695	-0.074463	0.024719	-0.05127	-0.01236	0.12466	-0.009155	-0.19623	0.13367	-0.002289	-0.01709
